<svg width="49" height="49" viewBox="0 0 49 49" fill="none" xmlns="http://www.w3.org/2000/svg">
<path d="M0.799988 12.5C0.799988 5.87263 6.17257 0.500031 12.8 0.500031H36.8C43.4274 0.500031 48.8 5.87261 48.8 12.5V36.4999C48.8 43.1274 43.4274 48.5 36.8 48.5H12.8C6.17257 48.5 0.799988 43.1274 0.799988 36.5V12.5Z" fill="#8B5CF6"/>
<g clip-path="url(#clip0_1_110)">
<path d="M37.856 33.4381C37.372 34.556 36.7992 35.5852 36.1355 36.5313C35.2309 37.8211 34.4901 38.7139 33.9193 39.2097C33.0344 40.0235 32.0863 40.4403 31.071 40.464C30.3421 40.464 29.4631 40.2566 28.44 39.8359C27.4134 39.4171 26.47 39.2097 25.6075 39.2097C24.7028 39.2097 23.7326 39.4171 22.6948 39.8359C21.6554 40.2566 20.8181 40.4759 20.1779 40.4976C19.2043 40.5391 18.2339 40.1104 17.2652 39.2097C16.647 38.6705 15.8736 37.7461 14.9473 36.4365C13.9533 35.038 13.1362 33.4163 12.496 31.5675C11.8104 29.5705 11.4667 27.6368 11.4667 25.7646C11.4667 23.6201 11.9301 21.7705 12.8582 20.2205C13.5877 18.9755 14.5581 17.9934 15.7727 17.2725C16.9873 16.5515 18.2996 16.1841 19.7129 16.1606C20.4862 16.1606 21.5003 16.3998 22.7605 16.8699C24.0172 17.3416 24.8241 17.5808 25.1778 17.5808C25.4423 17.5808 26.3387 17.3011 27.8582 16.7435C29.2952 16.2264 30.508 16.0123 31.5016 16.0966C34.1938 16.3139 36.2165 17.3752 37.5616 19.2872C35.1538 20.7461 33.9627 22.7895 33.9864 25.4109C34.0082 27.4527 34.7489 29.1518 36.2046 30.5009C36.8644 31.127 37.6011 31.611 38.4209 31.9547C38.2431 32.4702 38.0555 32.964 37.856 33.4381V33.4381ZM31.6813 9.14058C31.6813 10.7409 31.0967 12.2352 29.9313 13.6183C28.5249 15.2625 26.8238 16.2125 24.9791 16.0626C24.9556 15.8706 24.942 15.6686 24.942 15.4562C24.942 13.9199 25.6108 12.2757 26.7985 10.9313C27.3915 10.2507 28.1456 9.6847 29.0602 9.23322C29.9727 8.78847 30.8359 8.54252 31.6478 8.5004C31.6715 8.71434 31.6813 8.9283 31.6813 9.14056V9.14058Z" fill="white"/>
</g>
<defs>
<clipPath id="clip0_1_110">
<rect width="32" height="31.9999" fill="white" transform="translate(8.79999 8.50003)"/>
</clipPath>
</defs>
</svg>
