<svg width="49" height="49" viewBox="0 0 49 49" fill="none" xmlns="http://www.w3.org/2000/svg">
<path d="M0.400024 12.5C0.400024 5.87263 5.77261 0.500031 12.4 0.500031H36.4C43.0274 0.500031 48.4 5.87261 48.4 12.5V36.4999C48.4 43.1274 43.0274 48.5 36.4 48.5H12.4C5.77261 48.5 0.400024 43.1274 0.400024 36.5V12.5Z" fill="#8B5CF6"/>
<g clip-path="url(#clip0_1_109)">
<path fill-rule="evenodd" clip-rule="evenodd" d="M10.6494 10.7494C8.40002 12.9989 8.40002 16.6192 8.40002 23.86V25.14C8.40002 32.3808 8.40002 36.0011 10.6494 38.2506C12.8989 40.5 16.5192 40.5 23.76 40.5H25.04C32.2808 40.5 35.9012 40.5 38.1506 38.2506C40.4 36.0011 40.4 32.3808 40.4 25.14V23.86C40.4 16.6192 40.4 12.9989 38.1506 10.7494C35.9012 8.50003 32.2808 8.50003 25.04 8.50003H23.76C16.5192 8.50003 12.8989 8.50003 10.6494 10.7494ZM13.8001 18.2334C13.9734 26.5534 18.1334 31.5534 25.4268 31.5534H25.8402V26.7934C28.5202 27.0601 30.5467 29.0201 31.36 31.5534H35.1468C34.1068 27.7667 31.3733 25.6734 29.6666 24.8734C31.3733 23.8867 33.7733 21.4867 34.3466 18.2334H30.9066C30.1599 20.8734 27.9468 23.2734 25.8402 23.5001V18.2334H22.4V27.4601C20.2667 26.9267 17.5734 24.3401 17.4534 18.2334H13.8001Z" fill="white"/>
</g>
<defs>
<clipPath id="clip0_1_109">
<rect width="32" height="31.9999" fill="white" transform="translate(8.40002 8.50003)"/>
</clipPath>
</defs>
</svg>
