<svg width="48" height="49" viewBox="0 0 48 49" fill="none" xmlns="http://www.w3.org/2000/svg">
<path d="M0 12.5C0 5.87263 5.37258 0.500031 12 0.500031H36C42.6274 0.500031 48 5.87261 48 12.5V36.4999C48 43.1274 42.6274 48.5 36 48.5H12C5.37258 48.5 0 43.1274 0 36.5V12.5Z" fill="#8B5CF6"/>
<g clip-path="url(#clip0_1_108)">
<path fill-rule="evenodd" clip-rule="evenodd" d="M40 24.5C40 33.3365 32.8366 40.5 24 40.5C15.1634 40.5 8 33.3365 8 24.5C8 15.6635 15.1634 8.50003 24 8.50003C32.8366 8.50003 40 15.6635 40 24.5ZM24.5734 20.3119C23.0171 20.9592 19.9068 22.2989 15.2425 24.3311C14.4851 24.6323 14.0883 24.9269 14.0522 25.2151C13.9912 25.702 14.6009 25.8937 15.4313 26.1548C15.5442 26.1903 15.6613 26.2271 15.7813 26.2661C16.5982 26.5317 17.6971 26.8424 18.2684 26.8547C18.7866 26.8659 19.365 26.6523 20.0035 26.2138C24.3615 23.272 26.6112 21.7851 26.7524 21.753C26.8521 21.7304 26.9901 21.702 27.0837 21.7851C27.1772 21.8683 27.168 22.0258 27.1581 22.068C27.0977 22.3255 24.7042 24.5508 23.4655 25.7024C23.0793 26.0614 22.8054 26.316 22.7494 26.3742C22.624 26.5045 22.4962 26.6277 22.3733 26.7461C21.6144 27.4778 21.0452 28.0264 22.4048 28.9224C23.0582 29.3529 23.581 29.709 24.1026 30.0642C24.6722 30.4521 25.2404 30.839 25.9755 31.3209C26.1628 31.4436 26.3416 31.5711 26.5159 31.6954C27.1788 32.1679 27.7743 32.5925 28.5101 32.5248C28.9377 32.4855 29.3793 32.0835 29.6036 30.8845C30.1336 28.0508 31.1755 21.9113 31.4163 19.3813C31.4374 19.1596 31.4108 18.876 31.3895 18.7514C31.3682 18.6269 31.3237 18.4495 31.1618 18.3181C30.9701 18.1626 30.6742 18.1298 30.5418 18.1321C29.94 18.1427 29.0167 18.4638 24.5734 20.3119Z" fill="white"/>
</g>
<defs>
<clipPath id="clip0_1_108">
<rect width="32" height="31.9999" fill="white" transform="translate(8 8.50003)"/>
</clipPath>
</defs>
</svg>
