<svg width="48" height="49" viewBox="0 0 48 49" fill="none" xmlns="http://www.w3.org/2000/svg">
<path d="M0 12.5C0 5.87263 5.37258 0.500031 12 0.500031H36C42.6274 0.500031 48 5.87261 48 12.5V36.4999C48 43.1274 42.6274 48.5 36 48.5H12C5.37258 48.5 0 43.1274 0 36.5V12.5Z" fill="#8B5CF6"/>
<g clip-path="url(#clip0_1_113)">
<path d="M37.6313 8.50003H10.3625C9.05625 8.50003 8 9.53128 8 10.8063V38.1875C8 39.4625 9.05625 40.5 10.3625 40.5H37.6313C38.9375 40.5 40 39.4625 40 38.1937V10.8063C40 9.53128 38.9375 8.50003 37.6313 8.50003ZM17.4937 35.7687H12.7438V20.4938H17.4937V35.7687ZM15.1188 18.4125C13.5938 18.4125 12.3625 17.1813 12.3625 15.6625C12.3625 14.1438 13.5938 12.9125 15.1188 12.9125C16.6375 12.9125 17.8687 14.1438 17.8687 15.6625C17.8687 17.175 16.6375 18.4125 15.1188 18.4125ZM35.2687 35.7687H30.525V28.3437C30.525 26.575 30.4937 24.2937 28.0562 24.2937C25.5875 24.2937 25.2125 26.225 25.2125 28.2187V35.7687H20.475V20.4938H25.025V22.5812H25.0875C25.7187 21.3813 27.2688 20.1125 29.575 20.1125C34.3813 20.1125 35.2687 23.275 35.2687 27.3875V35.7687V35.7687Z" fill="white"/>
</g>
<defs>
<clipPath id="clip0_1_113">
<rect width="32" height="31.9999" fill="white" transform="translate(8 8.50003)"/>
</clipPath>
</defs>
</svg>
