<svg width="49" height="49" viewBox="0 0 49 49" fill="none" xmlns="http://www.w3.org/2000/svg">
<path d="M0.200012 12.5C0.200012 5.87263 5.5726 0.500031 12.2 0.500031H36.2C42.8274 0.500031 48.2 5.87261 48.2 12.5V36.4999C48.2 43.1274 42.8274 48.5 36.2 48.5H12.2C5.5726 48.5 0.200012 43.1274 0.200012 36.5V12.5Z" fill="#8B5CF6"/>
<g clip-path="url(#clip0_1_111)">
<path d="M35.2894 14.0408C33.2498 13.105 31.0627 12.4155 28.7759 12.0206C28.7342 12.013 28.6926 12.032 28.6712 12.0701C28.3899 12.5704 28.0783 13.2231 27.8601 13.7361C25.4006 13.3678 22.9536 13.3678 20.5444 13.7361C20.3262 13.2117 20.0033 12.5704 19.7208 12.0701C19.6993 12.0333 19.6577 12.0142 19.6161 12.0206C17.3306 12.4142 15.1434 13.1037 13.1026 14.0408C13.0849 14.0484 13.0698 14.0611 13.0597 14.0776C8.9112 20.2754 7.77475 26.3209 8.33225 32.2914C8.33477 32.3206 8.35117 32.3486 8.37388 32.3663C11.111 34.3764 13.7623 35.5966 16.3644 36.4055C16.406 36.4182 16.4502 36.403 16.4767 36.3687C17.0922 35.5281 17.6409 34.6418 18.1113 33.7097C18.1391 33.6552 18.1126 33.5904 18.0558 33.5688C17.1855 33.2387 16.3568 32.8361 15.5597 32.379C15.4966 32.3422 15.4916 32.252 15.5496 32.2088C15.7173 32.0831 15.8851 31.9524 16.0453 31.8203C16.0743 31.7962 16.1146 31.7911 16.1487 31.8063C21.3857 34.1973 27.0554 34.1973 32.2306 31.8063C32.2647 31.7898 32.3051 31.7949 32.3353 31.819C32.4955 31.9511 32.6633 32.0831 32.8323 32.2088C32.8903 32.252 32.8865 32.3422 32.8235 32.379C32.0263 32.845 31.1976 33.2387 30.326 33.5675C30.2693 33.5891 30.244 33.6552 30.2718 33.7097C30.7524 34.6405 31.301 35.5268 31.9052 36.3674C31.9304 36.403 31.9758 36.4182 32.0175 36.4055C34.6322 35.5966 37.2835 34.3764 40.0206 32.3663C40.0446 32.3486 40.0597 32.3219 40.0622 32.2927C40.7295 25.3901 38.9447 19.3942 35.331 14.0789C35.3221 14.0611 35.307 14.0484 35.2894 14.0408ZM18.8934 28.656C17.3167 28.656 16.0175 27.2085 16.0175 25.4308C16.0175 23.6531 17.2915 22.2055 18.8934 22.2055C20.5078 22.2055 21.7944 23.6658 21.7692 25.4308C21.7692 27.2085 20.4952 28.656 18.8934 28.656ZM29.5263 28.656C27.9497 28.656 26.6505 27.2085 26.6505 25.4308C26.6505 23.6531 27.9245 22.2055 29.5263 22.2055C31.1409 22.2055 32.4274 23.6658 32.4022 25.4308C32.4022 27.2085 31.1409 28.656 29.5263 28.656Z" fill="white"/>
</g>
<defs>
<clipPath id="clip0_1_111">
<rect width="32" height="31.9999" fill="white" transform="translate(8.20001 8.50003)"/>
</clipPath>
</defs>
</svg>
