<svg width="49" height="49" viewBox="0 0 49 49" fill="none" xmlns="http://www.w3.org/2000/svg">
<path d="M0.600006 12.5C0.600006 5.87263 5.97259 0.500031 12.6 0.500031H36.6C43.2274 0.500031 48.6 5.87261 48.6 12.5V36.4999C48.6 43.1274 43.2274 48.5 36.6 48.5H12.6C5.97259 48.5 0.600006 43.1274 0.600006 36.5V12.5Z" fill="#8B5CF6"/>
<g clip-path="url(#clip0_1_112)">
<path d="M24.6 11.3813C28.875 11.3813 29.3813 11.4 31.0625 11.475C32.625 11.5438 33.4688 11.8063 34.0313 12.025C34.775 12.3125 35.3125 12.6625 35.8688 13.2188C36.4313 13.7813 36.775 14.3125 37.0625 15.0563C37.2813 15.6188 37.5438 16.4688 37.6125 18.025C37.6875 19.7125 37.7063 20.2188 37.7063 24.4875C37.7063 28.7625 37.6875 29.2687 37.6125 30.95C37.5438 32.5125 37.2813 33.3562 37.0625 33.9187C36.775 34.6625 36.425 35.2 35.8688 35.7562C35.3063 36.3187 34.775 36.6625 34.0313 36.95C33.4688 37.1687 32.6188 37.4312 31.0625 37.5C29.375 37.575 28.8688 37.5937 24.6 37.5937C20.325 37.5937 19.8188 37.575 18.1375 37.5C16.575 37.4312 15.7313 37.1687 15.1688 36.95C14.425 36.6625 13.8875 36.3125 13.3313 35.7562C12.7688 35.1937 12.425 34.6625 12.1375 33.9187C11.9188 33.3562 11.6563 32.5062 11.5875 30.95C11.5125 29.2625 11.4938 28.7562 11.4938 24.4875C11.4938 20.2125 11.5125 19.7063 11.5875 18.025C11.6563 16.4625 11.9188 15.6188 12.1375 15.0563C12.425 14.3125 12.775 13.775 13.3313 13.2188C13.8938 12.6563 14.425 12.3125 15.1688 12.025C15.7313 11.8063 16.5813 11.5438 18.1375 11.475C19.8188 11.4 20.325 11.3813 24.6 11.3813ZM24.6 8.50003C20.2563 8.50003 19.7125 8.51878 18.0063 8.59378C16.3063 8.66878 15.1375 8.94378 14.125 9.33753C13.0688 9.75003 12.175 10.2938 11.2875 11.1875C10.3938 12.075 9.85001 12.9688 9.43751 14.0188C9.04376 15.0375 8.76876 16.2 8.69376 17.9C8.61876 19.6125 8.60001 20.1563 8.60001 24.5C8.60001 28.8437 8.61876 29.3875 8.69376 31.0937C8.76876 32.7937 9.04376 33.9625 9.43751 34.975C9.85001 36.0312 10.3938 36.925 11.2875 37.8125C12.175 38.7 13.0688 39.25 14.1188 39.6562C15.1375 40.05 16.3 40.325 18 40.4C19.7063 40.475 20.25 40.4937 24.5938 40.4937C28.9375 40.4937 29.4813 40.475 31.1875 40.4C32.8875 40.325 34.0563 40.05 35.0688 39.6562C36.1188 39.25 37.0125 38.7 37.9 37.8125C38.7875 36.925 39.3375 36.0312 39.7438 34.9812C40.1375 33.9625 40.4125 32.8 40.4875 31.1C40.5625 29.3937 40.5813 28.85 40.5813 24.5062C40.5813 20.1625 40.5625 19.6188 40.4875 17.9125C40.4125 16.2125 40.1375 15.0438 39.7438 14.0313C39.35 12.9688 38.8063 12.075 37.9125 11.1875C37.025 10.3 36.1313 9.75003 35.0813 9.34378C34.0625 8.95003 32.9 8.67503 31.2 8.60003C29.4875 8.51878 28.9438 8.50003 24.6 8.50003Z" fill="white"/>
<path d="M24.6 16.2813C20.0625 16.2813 16.3813 19.9625 16.3813 24.5C16.3813 29.0375 20.0625 32.7187 24.6 32.7187C29.1375 32.7187 32.8188 29.0375 32.8188 24.5C32.8188 19.9625 29.1375 16.2813 24.6 16.2813ZM24.6 29.8312C21.6563 29.8312 19.2688 27.4437 19.2688 24.5C19.2688 21.5563 21.6563 19.1688 24.6 19.1688C27.5438 19.1688 29.9313 21.5563 29.9313 24.5C29.9313 27.4437 27.5438 29.8312 24.6 29.8312Z" fill="white"/>
<path d="M35.0625 15.9562C35.0625 17.0187 34.2 17.875 33.1438 17.875C32.0813 17.875 31.225 17.0125 31.225 15.9562C31.225 14.8937 32.0875 14.0375 33.1438 14.0375C34.2 14.0375 35.0625 14.9 35.0625 15.9562Z" fill="white"/>
</g>
<defs>
<clipPath id="clip0_1_112">
<rect width="32" height="31.9999" fill="white" transform="translate(8.60001 8.50003)"/>
</clipPath>
</defs>
</svg>
