<svg width="32" height="32" viewBox="0 0 32 32" fill="none" xmlns="http://www.w3.org/2000/svg">
<path fill-rule="evenodd" clip-rule="evenodd" d="M12 1.66675C12.5523 1.66675 13 2.11446 13 2.66675V4.35037C13.6214 4.33842 14.2872 4.33489 15 4.33385V2.66675C15 2.11446 15.4477 1.66675 16 1.66675C16.5523 1.66675 17 2.11446 17 2.66675V4.33385C17.7129 4.33489 18.3787 4.33842 19 4.35037V2.66675C19 2.11446 19.4477 1.66675 20 1.66675C20.5523 1.66675 21 2.11446 21 2.66675V4.4362C21.3466 4.46262 21.6748 4.49584 21.9854 4.53759C23.5486 4.74776 24.8139 5.19059 25.8117 6.18841C26.8095 7.18622 27.2523 8.45149 27.4625 10.0147C27.5043 10.3253 27.5375 10.6535 27.5639 11.0001H29.3334C29.8856 11.0001 30.3334 11.4478 30.3334 12.0001C30.3334 12.5524 29.8856 13.0001 29.3334 13.0001H27.6497C27.6617 13.6214 27.6652 14.2872 27.6663 15.0001H29.3334C29.8856 15.0001 30.3334 15.4478 30.3334 16.0001C30.3334 16.5524 29.8856 17.0001 29.3334 17.0001H27.6663C27.6652 17.7129 27.6617 18.3788 27.6497 19.0001H29.3334C29.8856 19.0001 30.3334 19.4478 30.3334 20.0001C30.3334 20.5524 29.8856 21.0001 29.3334 21.0001H27.5639C27.5375 21.3467 27.5043 21.6749 27.4625 21.9854C27.2523 23.5487 26.8095 24.8139 25.8117 25.8118C24.8139 26.8096 23.5486 27.2524 21.9854 27.4626C21.6748 27.5043 21.3466 27.5375 21 27.564V29.3334C21 29.8857 20.5523 30.3334 20 30.3334C19.4477 30.3334 19 29.8857 19 29.3334V27.6498C18.3787 27.6617 17.7129 27.6653 17 27.6663V29.3334C17 29.8857 16.5523 30.3334 16 30.3334C15.4477 30.3334 15 29.8857 15 29.3334V27.6663C14.2872 27.6653 13.6214 27.6617 13 27.6498V29.3334C13 29.8857 12.5523 30.3334 12 30.3334C11.4477 30.3334 11 29.8857 11 29.3334V27.564C10.6534 27.5375 10.3252 27.5043 10.0147 27.4626C8.45143 27.2524 7.18616 26.8096 6.18834 25.8118C5.19053 24.8139 4.7477 23.5487 4.53753 21.9854C4.49578 21.6749 4.46256 21.3467 4.43614 21.0001H2.66669C2.1144 21.0001 1.66669 20.5524 1.66669 20.0001C1.66669 19.4478 2.1144 19.0001 2.66669 19.0001H4.35031C4.33836 18.3788 4.33483 17.7129 4.33379 17.0001H2.66669C2.1144 17.0001 1.66669 16.5524 1.66669 16.0001C1.66669 15.4478 2.1144 15.0001 2.66669 15.0001H4.33379C4.33483 14.2872 4.33836 13.6214 4.35031 13.0001H2.66669C2.1144 13.0001 1.66669 12.5524 1.66669 12.0001C1.66669 11.4478 2.1144 11.0001 2.66669 11.0001H4.43614C4.46256 10.6535 4.49578 10.3253 4.53753 10.0147C4.7477 8.45149 5.19053 7.18622 6.18834 6.18841C7.18616 5.19059 8.45143 4.74776 10.0147 4.53759C10.3252 4.49584 10.6534 4.46262 11 4.4362V2.66675C11 2.11446 11.4477 1.66675 12 1.66675ZM10.2812 6.51976C8.9397 6.70011 8.16684 7.03834 7.60256 7.60262C7.03828 8.1669 6.70005 8.93976 6.5197 10.2812C6.33548 11.6514 6.33335 13.4577 6.33335 16.0001C6.33335 18.5425 6.33548 20.3487 6.5197 21.719C6.70005 23.0604 7.03828 23.8333 7.60256 24.3975C8.16684 24.9618 8.9397 25.3 10.2812 25.4804C11.6514 25.6646 13.4576 25.6667 16 25.6667C18.5424 25.6667 20.3487 25.6646 21.7189 25.4804C23.0603 25.3 23.8332 24.9618 24.3975 24.3975C24.9618 23.8333 25.3 23.0604 25.4803 21.719C25.6646 20.3487 25.6667 18.5425 25.6667 16.0001C25.6667 13.4577 25.6646 11.6514 25.4803 10.2812C25.3 8.93976 24.9618 8.1669 24.3975 7.60262C23.8332 7.03834 23.0603 6.70011 21.7189 6.51976C20.3487 6.33554 18.5424 6.33341 16 6.33341C13.4576 6.33341 11.6514 6.33554 10.2812 6.51976ZM13.2675 8.33341H18.7325C19.619 8.33336 20.3828 8.33332 20.9945 8.41556C21.65 8.50369 22.2783 8.70243 22.788 9.21209C23.2977 9.72176 23.4964 10.3501 23.5845 11.0056C23.6668 11.6173 23.6667 12.3811 23.6667 13.2676V18.7326C23.6667 19.6191 23.6668 20.3829 23.5845 20.9945C23.4964 21.6501 23.2977 22.2784 22.788 22.7881C22.2783 23.2977 21.65 23.4965 20.9945 23.5846C20.3828 23.6668 19.619 23.6668 18.7325 23.6668H13.2675C12.381 23.6668 11.6172 23.6668 11.0056 23.5846C10.35 23.4965 9.7217 23.2977 9.21203 22.7881C8.70237 22.2784 8.50363 21.6501 8.41549 20.9945C8.33326 20.3829 8.3333 19.6191 8.33335 18.7326V13.2676C8.3333 12.3811 8.33326 11.6173 8.41549 11.0056C8.50363 10.3501 8.70237 9.72176 9.21203 9.21209C9.7217 8.70243 10.35 8.50369 11.0056 8.41556C11.6172 8.33332 12.381 8.33336 13.2675 8.33341ZM11.2721 10.3977C10.8383 10.456 10.7024 10.5502 10.6262 10.6263C10.5501 10.7024 10.456 10.8384 10.3977 11.2721C10.3355 11.7346 10.3334 12.3623 10.3334 13.3334V18.6667C10.3334 19.6378 10.3355 20.2655 10.3977 20.728C10.456 21.1618 10.5501 21.2977 10.6262 21.3739C10.7024 21.45 10.8383 21.5441 11.2721 21.6024C11.7346 21.6646 12.3623 21.6667 13.3334 21.6667H18.6667C19.6378 21.6667 20.2655 21.6646 20.728 21.6024C21.1617 21.5441 21.2977 21.45 21.3738 21.3739C21.4499 21.2977 21.5441 21.1618 21.6024 20.728C21.6646 20.2655 21.6667 19.6378 21.6667 18.6667V13.3334C21.6667 12.3623 21.6646 11.7346 21.6024 11.2721C21.5441 10.8384 21.4499 10.7024 21.3738 10.6263C21.2977 10.5502 21.1617 10.456 20.728 10.3977C20.2655 10.3355 19.6378 10.3334 18.6667 10.3334H13.3334C12.3623 10.3334 11.7346 10.3355 11.2721 10.3977Z" fill="#171717"/>
</svg>
