<svg width="32" height="32" viewBox="0 0 32 32" fill="none" xmlns="http://www.w3.org/2000/svg">
<path fill-rule="evenodd" clip-rule="evenodd" d="M21.1897 4.19199C20.6234 4.63107 19.9544 5.30775 18.9702 6.30792L17.5563 7.74459C18.5261 8.50543 19.6144 9.59381 20.9582 10.9376L21.0626 11.042C22.4648 12.4442 23.5889 13.5683 24.353 14.5697C24.3597 14.5785 24.3664 14.5873 24.3731 14.5962L25.7275 13.2199C26.7115 12.22 27.3778 11.54 27.8103 10.9639C28.2251 10.4115 28.3333 10.0711 28.3333 9.76393C28.3333 9.45676 28.2251 9.11632 27.8103 8.56396C27.3778 7.98788 26.7115 7.30787 25.7275 6.30792C24.7432 5.30775 24.0742 4.63106 23.5079 4.19199C22.964 3.77028 22.6365 3.66675 22.3488 3.66675C22.0612 3.66675 21.7337 3.77028 21.1897 4.19199ZM25.3974 16.4067L27.202 14.5729C28.1246 13.6355 28.8871 12.8607 29.4097 12.1648C29.9593 11.4328 30.3333 10.6744 30.3333 9.76393C30.3333 8.85342 29.9593 8.09506 29.4097 7.36308C28.8871 6.66712 28.1246 5.89236 27.202 4.95493L27.1034 4.85476C26.1813 3.91768 25.4187 3.14274 24.7333 2.61138C24.0133 2.05318 23.2595 1.66675 22.3488 1.66675C21.4381 1.66675 20.6843 2.05318 19.9643 2.61138C19.2789 3.14275 18.5163 3.91768 17.5942 4.85475L15.7982 6.6797C15.2819 6.47242 14.7452 6.35734 14.1662 6.35734C12.9609 6.35734 11.9388 6.85608 10.9019 7.64721C9.90048 8.41128 8.77639 9.53539 7.3742 10.9376L6.24701 12.0648C4.84477 13.467 3.72066 14.5911 2.95659 15.5925C2.16546 16.6294 1.66672 17.6515 1.66672 18.8568C1.66672 20.0621 2.16546 21.0842 2.95659 22.1211C3.72066 23.1226 4.84479 24.2467 6.24703 25.6489L6.35137 25.7532C7.75355 27.1554 8.87763 28.2795 9.87906 29.0436C10.916 29.8347 11.938 30.3335 13.1434 30.3335C14.3487 30.3335 15.3707 29.8347 16.4076 29.0436C17.4091 28.2795 18.5332 27.1554 19.9354 25.7532L21.0626 24.6259C22.4648 23.2238 23.5889 22.0997 24.353 21.0983C25.1441 20.0614 25.6428 19.0393 25.6428 17.834C25.6428 17.3311 25.556 16.8601 25.3974 16.4067ZM15.3914 8.69411C14.9346 8.45105 14.5488 8.35734 14.1662 8.35734C13.574 8.35734 12.9741 8.58186 12.1151 9.23725C11.233 9.91025 10.2027 10.9375 8.73623 12.404L7.71339 13.4269C6.24688 14.8934 5.21963 15.9236 4.54663 16.8057C3.89124 17.6647 3.66672 18.2646 3.66672 18.8568C3.66672 19.449 3.89124 20.049 4.54663 20.908C5.21963 21.79 6.24688 22.8203 7.71339 24.2868C9.1799 25.7533 10.2102 26.7805 11.0922 27.4535C11.9512 28.1089 12.5512 28.3335 13.1434 28.3335C13.7355 28.3335 14.3355 28.1089 15.1945 27.4535C16.0766 26.7805 17.1068 25.7533 18.5733 24.2868L19.5962 23.2639C21.0627 21.7974 22.0899 20.7672 22.7629 19.8851C23.4183 19.0261 23.6428 18.4262 23.6428 17.834C23.6428 17.2418 23.4183 16.6418 22.7629 15.7828C22.0899 14.9008 21.0627 13.8705 19.5962 12.404C18.1296 10.9375 17.0994 9.91025 16.2173 9.23725C16.0055 9.07563 15.8094 8.94021 15.6253 8.8279C15.5431 8.79471 15.4643 8.75012 15.3914 8.69411ZM22.8354 6.33629C23.2259 6.72681 23.2259 7.35998 22.8354 7.7505L21.8926 8.69331C21.502 9.08384 20.8689 9.08384 20.4784 8.69331C20.0878 8.30279 20.0878 7.66962 20.4784 7.2791L21.4212 6.33629C21.8117 5.94576 22.4448 5.94576 22.8354 6.33629ZM25.6638 9.16472C26.0543 9.55524 26.0543 10.1884 25.6638 10.5789L24.721 11.5217C24.3305 11.9123 23.6973 11.9123 23.3068 11.5217C22.9163 11.1312 22.9163 10.498 23.3068 10.1075L24.2496 9.16472C24.6401 8.77419 25.2733 8.77419 25.6638 9.16472ZM6.29918 18.1497C6.6897 17.7592 7.32287 17.7592 7.71339 18.1497L13.8505 24.2868C14.241 24.6773 14.241 25.3105 13.8505 25.701C13.4599 26.0915 12.8268 26.0915 12.4362 25.701L6.29918 19.5639C5.90865 19.1734 5.90865 18.5402 6.29918 18.1497Z" fill="#171717"/>
</svg>
