<svg width="32" height="32" viewBox="0 0 32 32" fill="none" xmlns="http://www.w3.org/2000/svg">
<path fill-rule="evenodd" clip-rule="evenodd" d="M20.9079 7.13094C18.7362 7.13094 16.9687 8.88534 16.9687 11.0581C16.9687 13.2309 18.7362 14.9853 20.9079 14.9853C23.0796 14.9853 24.8471 13.2309 24.8471 11.0581C24.8471 8.88534 23.0796 7.13094 20.9079 7.13094ZM18.9687 11.0581C18.9687 9.99762 19.8331 9.13094 20.9079 9.13094C21.9828 9.13094 22.8471 9.99762 22.8471 11.0581C22.8471 12.1186 21.9828 12.9853 20.9079 12.9853C19.8331 12.9853 18.9687 12.1186 18.9687 11.0581Z" fill="#171717"/>
<path fill-rule="evenodd" clip-rule="evenodd" d="M12.7067 27.8379C13.1507 27.2188 13.2936 26.5906 13.283 26.0312C13.8059 26.185 14.3233 26.2045 14.8188 26.1104C15.8434 25.9161 16.6015 25.2684 17.0037 24.7343L17.0107 24.725L17.0175 24.7155C17.7178 23.7392 17.7164 22.7391 17.5449 22.0219C17.4609 21.6705 17.3362 21.3815 17.2327 21.1795C17.1804 21.0775 17.1321 20.9948 17.0944 20.9341C17.0844 20.9181 17.0751 20.9035 17.0666 20.8904C16.9483 20.6696 16.8148 20.496 16.7026 20.365L16.7146 20.353L17.3335 19.7367C17.8423 19.9799 18.3943 20.1333 18.8778 20.2333C19.6587 20.395 20.4228 20.4492 20.9077 20.4492C26.1095 20.4492 30.3333 16.2485 30.3333 11.058C30.3333 5.8675 26.1095 1.66675 20.9077 1.66675C15.7059 1.66675 11.482 5.8675 11.482 11.058C11.482 12.2807 11.7603 13.3279 12.0346 14.0654C12.1044 14.2532 12.1745 14.4223 12.2405 14.5706L2.56688 24.2048C2.22499 24.5453 1.82392 25.1374 1.7027 25.879C1.57123 26.6833 1.78714 27.5773 2.56688 28.3539L3.74256 29.5248C3.76068 29.5428 3.77949 29.5602 3.79895 29.5768C4.13854 29.8667 4.70892 30.2018 5.39436 30.3031C6.12956 30.4118 6.98043 30.2425 7.70112 29.5248L8.4565 28.7725C9.16705 29.18 9.91811 29.2728 10.6126 29.1398C11.5134 28.9672 12.2625 28.4281 12.6929 27.8566L12.6999 27.8473L12.7067 27.8379ZM13.482 11.058C13.482 6.97978 16.8027 3.66675 20.9077 3.66675C25.0126 3.66675 28.3333 6.97978 28.3333 11.058C28.3333 15.1362 25.0126 18.4492 20.9077 18.4492C20.5434 18.4492 19.9163 18.4059 19.2832 18.2749C18.6206 18.1377 18.1004 17.934 17.8233 17.704C17.4265 17.3747 16.8444 17.4011 16.479 17.765L15.3033 18.9359C15.0343 19.2038 14.7758 19.5074 14.6393 19.8579C14.4666 20.3016 14.5216 20.7285 14.7193 21.0829C14.8365 21.293 15.0252 21.4937 15.1038 21.5774L15.1302 21.6056C15.2231 21.7082 15.274 21.7753 15.3112 21.8494L15.3465 21.9196L15.3867 21.9757L15.3958 21.99C15.4079 22.0094 15.4284 22.044 15.4527 22.0914C15.5023 22.1883 15.5613 22.3261 15.5997 22.487C15.6726 22.7917 15.6718 23.1542 15.3992 23.5402C15.2117 23.7846 14.8566 24.0676 14.4461 24.1455C14.1027 24.2106 13.5428 24.1682 12.7957 23.4242C12.4055 23.0356 11.7746 23.0356 11.3844 23.4242L10.9925 23.8145C10.6234 24.1821 10.5986 24.771 10.9341 25.1682C10.936 25.1705 10.9411 25.1769 10.9489 25.1872C10.9649 25.2084 10.9913 25.2449 11.0225 25.294C11.0865 25.3948 11.1618 25.5344 11.2152 25.6942C11.316 25.9952 11.3318 26.3166 11.0886 26.6623C10.9286 26.8693 10.6041 27.105 10.2364 27.1755C9.92394 27.2353 9.52386 27.1909 9.07274 26.7416C8.68255 26.353 8.05161 26.353 7.66142 26.7416L6.2898 28.1077C6.06995 28.3266 5.8758 28.3525 5.6868 28.3246C5.46312 28.2915 5.24451 28.1725 5.12109 28.075L3.9782 26.9368C3.66064 26.6205 3.64795 26.3763 3.6765 26.2016C3.71531 25.9642 3.86288 25.7367 3.9782 25.6219L14.1706 15.4711C14.4997 15.1434 14.558 14.6314 14.3111 14.238L14.3082 14.2332C14.3045 14.2271 14.2976 14.2154 14.2879 14.1983C14.2683 14.1642 14.2376 14.1086 14.1993 14.0336C14.1225 13.8831 14.0163 13.6564 13.9091 13.3683C13.6935 12.7886 13.482 11.9818 13.482 11.058ZM10.9341 25.1682C10.936 25.1704 10.9378 25.1725 10.9397 25.1747L10.9381 25.1729L10.9341 25.1682Z" fill="#171717"/>
</svg>
