<svg width="48" height="48" viewBox="0 0 48 48" fill="none" xmlns="http://www.w3.org/2000/svg">
<path fill-rule="evenodd" clip-rule="evenodd" d="M24 5.5C16.5442 5.5 10.5 11.5442 10.5 19C10.5 22.997 12.2352 26.5868 14.9981 29.0608L15.0068 29.0686C16.1202 30.0655 16.9659 30.8228 17.5705 31.3771C18.1398 31.899 18.5907 32.3255 18.8271 32.6171L18.8527 32.6488C19.2953 33.1948 19.6809 33.6706 19.9352 34.2397C20.1895 34.8088 20.2867 35.4135 20.3983 36.1074L20.4048 36.1477C20.462 36.5033 20.4849 36.9402 20.4941 37.5H27.5059C27.5151 36.9402 27.538 36.5033 27.5952 36.1477L27.6017 36.1074C27.7133 35.4135 27.8105 34.8088 28.0648 34.2397C28.3191 33.6707 28.7047 33.1948 29.1472 32.6488L29.1729 32.6171C29.4093 32.3255 29.8602 31.899 30.4295 31.3771C31.0341 30.8228 31.8799 30.0655 32.9933 29.0685L33.0019 29.0608C35.7648 26.5868 37.5 22.997 37.5 19C37.5 11.5442 31.4558 5.5 24 5.5ZM27.4871 40.5H20.5129C20.5194 40.7084 20.5293 40.8906 20.5441 41.0545C20.5849 41.5048 20.6538 41.6683 20.701 41.75C20.8326 41.978 21.022 42.1674 21.25 42.299C21.3317 42.3462 21.4952 42.4151 21.9455 42.4559C22.4164 42.4986 23.0378 42.5 24 42.5C24.9622 42.5 25.5836 42.4986 26.0545 42.4559C26.5048 42.4151 26.6683 42.3462 26.75 42.299C26.978 42.1674 27.1674 41.978 27.299 41.75C27.3462 41.6683 27.4151 41.5048 27.4559 41.0545C27.4707 40.8906 27.4806 40.7084 27.4871 40.5ZM7.5 19C7.5 9.8873 14.8873 2.5 24 2.5C33.1127 2.5 40.5 9.8873 40.5 19C40.5 23.8856 38.3747 28.2767 35.0031 31.2958C33.8793 32.302 33.0468 33.0475 32.4568 33.5885C32.1618 33.8589 31.9362 34.0702 31.7697 34.2324C31.6868 34.3132 31.6233 34.3771 31.576 34.4267C31.5526 34.4513 31.535 34.4704 31.5222 34.4846C31.5092 34.4992 31.5038 34.5059 31.5038 34.5059C30.9834 35.148 30.8708 35.3136 30.8037 35.4637C30.7367 35.6138 30.6884 35.8082 30.5571 36.6242C30.5053 36.9463 30.5 37.4981 30.5 39V39.0644C30.5 39.944 30.5001 40.7027 30.4436 41.3253C30.384 41.9837 30.2519 42.6356 29.8971 43.25C29.5022 43.9341 28.9341 44.5022 28.25 44.8971C27.6356 45.2519 26.9837 45.384 26.3253 45.4436C25.7027 45.5001 24.9441 45.5 24.0645 45.5H23.9355C23.0559 45.5 22.2973 45.5001 21.6747 45.4436C21.0163 45.384 20.3644 45.2519 19.75 44.8971C19.0659 44.5022 18.4978 43.9341 18.1029 43.25C17.7481 42.6356 17.616 41.9837 17.5564 41.3253C17.4999 40.7027 17.5 39.944 17.5 39.0645L17.5 39C17.5 37.4981 17.4947 36.9463 17.4429 36.6242C17.3116 35.8082 17.2633 35.6138 17.1962 35.4637C17.1292 35.3136 17.0166 35.148 16.4962 34.5059C16.4962 34.5059 16.4903 34.4986 16.4778 34.4846C16.465 34.4704 16.4474 34.4513 16.424 34.4267C16.3767 34.3771 16.3132 34.3132 16.2303 34.2324C16.0638 34.0702 15.8382 33.8589 15.5432 33.5885C14.9532 33.0476 14.1207 32.302 12.9969 31.2958C9.62525 28.2767 7.5 23.8856 7.5 19Z" fill="white"/>
<path fill-rule="evenodd" clip-rule="evenodd" d="M26.443 15.7794C27.1171 16.2609 27.2733 17.1977 26.7918 17.8719L24.2002 21.5H27.2854C27.8473 21.5 28.3621 21.814 28.6192 22.3136C28.8763 22.8132 28.8326 23.4146 28.506 23.8719L24.2203 29.8719C23.7388 30.546 22.802 30.7021 22.1279 30.2206C21.4538 29.7391 21.2976 28.8023 21.7791 28.1281L24.3707 24.5H21.2854C20.7236 24.5 20.2088 24.186 19.9517 23.6864C19.6946 23.1868 19.7383 22.5854 20.0648 22.1281L24.3506 16.1281C24.8321 15.454 25.7689 15.2979 26.443 15.7794Z" fill="white"/>
</svg>
