<svg width="263" height="48" viewBox="0 0 263 48" fill="none" xmlns="http://www.w3.org/2000/svg">
<path fill-rule="evenodd" clip-rule="evenodd" d="M24 5.5C16.5442 5.5 10.5 11.5442 10.5 19C10.5 22.997 12.2352 26.5868 14.9981 29.0608L15.0068 29.0686C16.1202 30.0655 16.9659 30.8228 17.5705 31.3771C18.1398 31.899 18.5907 32.3255 18.8271 32.6171L18.8527 32.6488C19.2953 33.1948 19.6809 33.6706 19.9352 34.2397C20.1895 34.8088 20.2867 35.4135 20.3983 36.1074L20.4048 36.1477C20.462 36.5033 20.4849 36.9402 20.4941 37.5H27.5059C27.5151 36.9402 27.538 36.5033 27.5952 36.1477L27.6017 36.1074C27.7133 35.4135 27.8105 34.8088 28.0648 34.2397C28.3191 33.6707 28.7047 33.1948 29.1472 32.6488L29.1729 32.6171C29.4093 32.3255 29.8602 31.899 30.4295 31.3771C31.0341 30.8228 31.8799 30.0655 32.9933 29.0685L33.0019 29.0608C35.7648 26.5868 37.5 22.997 37.5 19C37.5 11.5442 31.4558 5.5 24 5.5ZM27.4871 40.5H20.5129C20.5194 40.7084 20.5293 40.8906 20.5441 41.0545C20.5849 41.5048 20.6538 41.6683 20.701 41.75C20.8326 41.978 21.022 42.1674 21.25 42.299C21.3317 42.3462 21.4952 42.4151 21.9455 42.4559C22.4164 42.4986 23.0378 42.5 24 42.5C24.9622 42.5 25.5836 42.4986 26.0545 42.4559C26.5048 42.4151 26.6683 42.3462 26.75 42.299C26.978 42.1674 27.1674 41.978 27.299 41.75C27.3462 41.6683 27.4151 41.5048 27.4559 41.0545C27.4707 40.8906 27.4806 40.7084 27.4871 40.5ZM7.5 19C7.5 9.8873 14.8873 2.5 24 2.5C33.1127 2.5 40.5 9.8873 40.5 19C40.5 23.8856 38.3747 28.2767 35.0031 31.2958C33.8793 32.302 33.0468 33.0475 32.4568 33.5885C32.1618 33.8589 31.9362 34.0702 31.7697 34.2324C31.6868 34.3132 31.6233 34.3771 31.576 34.4267C31.5526 34.4513 31.535 34.4704 31.5222 34.4846C31.5092 34.4992 31.5038 34.5059 31.5038 34.5059C30.9834 35.148 30.8708 35.3136 30.8037 35.4637C30.7367 35.6138 30.6884 35.8082 30.5571 36.6242C30.5053 36.9463 30.5 37.4981 30.5 39V39.0644C30.5 39.944 30.5001 40.7027 30.4436 41.3253C30.384 41.9837 30.2519 42.6356 29.8971 43.25C29.5022 43.9341 28.9341 44.5022 28.25 44.8971C27.6356 45.2519 26.9837 45.384 26.3253 45.4436C25.7027 45.5001 24.9441 45.5 24.0645 45.5H23.9355C23.0559 45.5 22.2973 45.5001 21.6747 45.4436C21.0163 45.384 20.3644 45.2519 19.75 44.8971C19.0659 44.5022 18.4978 43.9341 18.1029 43.25C17.7481 42.6356 17.616 41.9837 17.5564 41.3253C17.4999 40.7027 17.5 39.944 17.5 39.0645L17.5 39C17.5 37.4981 17.4947 36.9463 17.4429 36.6242C17.3116 35.8082 17.2633 35.6138 17.1962 35.4637C17.1292 35.3136 17.0166 35.148 16.4962 34.5059C16.4962 34.5059 16.4903 34.4986 16.4778 34.4846C16.465 34.4704 16.4474 34.4513 16.424 34.4267C16.3767 34.3771 16.3132 34.3132 16.2303 34.2324C16.0638 34.0702 15.8382 33.8589 15.5432 33.5885C14.9532 33.0476 14.1207 32.302 12.9969 31.2958C9.62525 28.2767 7.5 23.8856 7.5 19Z" fill="#171717"/>
<path fill-rule="evenodd" clip-rule="evenodd" d="M26.443 15.7794C27.1171 16.2609 27.2733 17.1977 26.7918 17.8719L24.2002 21.5H27.2854C27.8473 21.5 28.3621 21.814 28.6192 22.3136C28.8763 22.8132 28.8326 23.4146 28.506 23.8719L24.2203 29.8719C23.7388 30.546 22.802 30.7021 22.1279 30.2206C21.4538 29.7391 21.2976 28.8023 21.7791 28.1281L24.3707 24.5H21.2854C20.7236 24.5 20.2088 24.186 19.9517 23.6864C19.6946 23.1868 19.7383 22.5854 20.0648 22.1281L24.3506 16.1281C24.8321 15.454 25.7689 15.2979 26.443 15.7794Z" fill="#171717"/>
<path d="M57.2891 29.9727H62.9727C63.2461 32.2969 65.668 33.8203 68.793 33.8203C71.9375 33.8203 74.0859 32.3164 74.0859 30.2461C74.0859 28.4102 72.7383 27.3945 69.3398 26.6328L65.668 25.832C60.4727 24.7188 57.9141 22.082 57.9141 17.9609C57.9141 12.7656 62.4062 9.32812 68.6953 9.32812C75.2578 9.32812 79.3789 12.707 79.4766 17.8047H73.9492C73.7539 15.4219 71.6641 13.9766 68.7148 13.9766C65.8047 13.9766 63.8516 15.3633 63.8516 17.4531C63.8516 19.1914 65.2188 20.168 68.4609 20.9102L71.8789 21.6328C77.5234 22.8438 79.9844 25.2656 79.9844 29.5625C79.9844 35.0312 75.5508 38.4883 68.5586 38.4883C61.7812 38.4883 57.4648 35.2656 57.2891 29.9727ZM89.0469 25.4609L96.1562 17.0625H102.621L94.6328 26.0469L103.012 38H96.4492L90.4531 29.4844L88.9688 31.0859V38H83.2656V9.81641H88.9688V25.4609H89.0469ZM104.75 38V17.0625H110.453V38H104.75ZM107.602 14.7578C105.883 14.7578 104.555 13.4492 104.555 11.8086C104.555 10.1484 105.883 8.85938 107.602 8.85938C109.32 8.85938 110.648 10.1484 110.648 11.8086C110.648 13.4492 109.32 14.7578 107.602 14.7578ZM114.398 38V9.81641H120.102V38H114.398ZM124.086 38V9.81641H129.789V38H124.086ZM133.07 29.9727H138.754C139.027 32.2969 141.449 33.8203 144.574 33.8203C147.719 33.8203 149.867 32.3164 149.867 30.2461C149.867 28.4102 148.52 27.3945 145.121 26.6328L141.449 25.832C136.254 24.7188 133.695 22.082 133.695 17.9609C133.695 12.7656 138.188 9.32812 144.477 9.32812C151.039 9.32812 155.16 12.707 155.258 17.8047H149.73C149.535 15.4219 147.445 13.9766 144.496 13.9766C141.586 13.9766 139.633 15.3633 139.633 17.4531C139.633 19.1914 141 20.168 144.242 20.9102L147.66 21.6328C153.305 22.8438 155.766 25.2656 155.766 29.5625C155.766 35.0312 151.332 38.4883 144.34 38.4883C137.562 38.4883 133.246 35.2656 133.07 29.9727ZM171.137 16.7305C176.449 16.7305 179.711 20.7734 179.711 27.5312C179.711 34.2695 176.469 38.332 171.234 38.332C168.188 38.332 165.844 36.8477 164.73 34.4844H164.613V44.8359H158.91V17.0625H164.535V20.7148H164.652C165.785 18.2539 168.109 16.7305 171.137 16.7305ZM169.223 33.7422C172.074 33.7422 173.871 31.3398 173.871 27.5312C173.871 23.7422 172.074 21.3008 169.223 21.3008C166.43 21.3008 164.594 23.7812 164.594 27.5312C164.594 31.3203 166.43 33.7422 169.223 33.7422ZM182.797 38V9.81641H188.402V20.793H188.52C189.633 18.1562 191.918 16.6719 195.102 16.6719C199.75 16.6719 202.406 19.6797 202.406 24.5234V38H196.703V25.7344C196.703 23.0391 195.375 21.3984 192.777 21.3984C190.082 21.3984 188.5 23.293 188.5 26.0469V38H182.797ZM215.453 20.832C212.953 20.832 211.156 22.7266 210.961 25.3438H219.848C219.73 22.668 217.992 20.832 215.453 20.832ZM219.926 31.5938H225.16C224.535 35.6953 220.785 38.4492 215.609 38.4492C209.164 38.4492 205.297 34.3281 205.297 27.6289C205.297 20.9492 209.203 16.6133 215.395 16.6133C221.488 16.6133 225.336 20.7344 225.336 27.1016V28.8398H210.902V29.1914C210.902 32.1797 212.797 34.2305 215.707 34.2305C217.797 34.2305 219.398 33.1953 219.926 31.5938ZM228.285 38V17.0625H233.793V20.832H233.91C234.652 18.1758 236.43 16.7305 238.891 16.7305C239.555 16.7305 240.121 16.8281 240.512 16.9453V21.9648C240.043 21.7695 239.262 21.6328 238.441 21.6328C235.629 21.6328 233.988 23.3516 233.988 26.3008V38H228.285ZM251.547 20.832C249.047 20.832 247.25 22.7266 247.055 25.3438H255.941C255.824 22.668 254.086 20.832 251.547 20.832ZM256.02 31.5938H261.254C260.629 35.6953 256.879 38.4492 251.703 38.4492C245.258 38.4492 241.391 34.3281 241.391 27.6289C241.391 20.9492 245.297 16.6133 251.488 16.6133C257.582 16.6133 261.43 20.7344 261.43 27.1016V28.8398H246.996V29.1914C246.996 32.1797 248.891 34.2305 251.801 34.2305C253.891 34.2305 255.492 33.1953 256.02 31.5938Z" fill="#171717"/>
</svg>
