<svg width="264" height="48" viewBox="0 0 264 48" fill="none" xmlns="http://www.w3.org/2000/svg">
<path fill-rule="evenodd" clip-rule="evenodd" d="M24.5 5.5C17.0442 5.5 11 11.5442 11 19C11 22.997 12.7352 26.5868 15.4981 29.0608L15.5068 29.0686C16.6202 30.0655 17.4659 30.8228 18.0705 31.3771C18.6398 31.899 19.0907 32.3255 19.3271 32.6171L19.3527 32.6488C19.7953 33.1948 20.1809 33.6706 20.4352 34.2397C20.6895 34.8088 20.7867 35.4135 20.8983 36.1074L20.9048 36.1477C20.962 36.5033 20.9849 36.9402 20.9941 37.5H28.0059C28.0151 36.9402 28.038 36.5033 28.0952 36.1477L28.1017 36.1074C28.2133 35.4135 28.3105 34.8088 28.5648 34.2397C28.8191 33.6707 29.2047 33.1948 29.6472 32.6488L29.6729 32.6171C29.9093 32.3255 30.3602 31.899 30.9295 31.3771C31.5341 30.8228 32.3799 30.0655 33.4933 29.0685L33.5019 29.0608C36.2648 26.5868 38 22.997 38 19C38 11.5442 31.9558 5.5 24.5 5.5ZM27.9871 40.5H21.0129C21.0194 40.7084 21.0293 40.8906 21.0441 41.0545C21.0849 41.5048 21.1538 41.6683 21.201 41.75C21.3326 41.978 21.522 42.1674 21.75 42.299C21.8317 42.3462 21.9952 42.4151 22.4455 42.4559C22.9164 42.4986 23.5378 42.5 24.5 42.5C25.4622 42.5 26.0836 42.4986 26.5545 42.4559C27.0048 42.4151 27.1683 42.3462 27.25 42.299C27.478 42.1674 27.6674 41.978 27.799 41.75C27.8462 41.6683 27.9151 41.5048 27.9559 41.0545C27.9707 40.8906 27.9806 40.7084 27.9871 40.5ZM8 19C8 9.8873 15.3873 2.5 24.5 2.5C33.6127 2.5 41 9.8873 41 19C41 23.8856 38.8747 28.2767 35.5031 31.2958C34.3793 32.302 33.5468 33.0475 32.9568 33.5885C32.6618 33.8589 32.4362 34.0702 32.2697 34.2324C32.1868 34.3132 32.1233 34.3771 32.076 34.4267C32.0526 34.4513 32.035 34.4704 32.0222 34.4846C32.0092 34.4992 32.0038 34.5059 32.0038 34.5059C31.4834 35.148 31.3708 35.3136 31.3037 35.4637C31.2367 35.6138 31.1884 35.8082 31.0571 36.6242C31.0053 36.9463 31 37.4981 31 39V39.0644C31 39.944 31.0001 40.7027 30.9436 41.3253C30.884 41.9837 30.7519 42.6356 30.3971 43.25C30.0022 43.9341 29.4341 44.5022 28.75 44.8971C28.1356 45.2519 27.4837 45.384 26.8253 45.4436C26.2027 45.5001 25.4441 45.5 24.5645 45.5H24.4355C23.5559 45.5 22.7973 45.5001 22.1747 45.4436C21.5163 45.384 20.8644 45.2519 20.25 44.8971C19.5659 44.5022 18.9978 43.9341 18.6029 43.25C18.2481 42.6356 18.116 41.9837 18.0564 41.3253C17.9999 40.7027 18 39.944 18 39.0645L18 39C18 37.4981 17.9947 36.9463 17.9429 36.6242C17.8116 35.8082 17.7633 35.6138 17.6962 35.4637C17.6292 35.3136 17.5166 35.148 16.9962 34.5059C16.9962 34.5059 16.9903 34.4986 16.9778 34.4846C16.965 34.4704 16.9474 34.4513 16.924 34.4267C16.8767 34.3771 16.8132 34.3132 16.7303 34.2324C16.5638 34.0702 16.3382 33.8589 16.0432 33.5885C15.4532 33.0476 14.6207 32.302 13.4969 31.2958C10.1253 28.2767 8 23.8856 8 19Z" fill="white"/>
<path fill-rule="evenodd" clip-rule="evenodd" d="M26.943 15.7794C27.6171 16.2609 27.7733 17.1977 27.2918 17.8719L24.7002 21.5H27.7854C28.3473 21.5 28.8621 21.814 29.1192 22.3136C29.3763 22.8132 29.3326 23.4146 29.006 23.8719L24.7203 29.8719C24.2388 30.546 23.302 30.7021 22.6279 30.2206C21.9538 29.7391 21.7976 28.8023 22.2791 28.1281L24.8707 24.5H21.7854C21.2236 24.5 20.7088 24.186 20.4517 23.6864C20.1946 23.1868 20.2383 22.5854 20.5648 22.1281L24.8506 16.1281C25.3321 15.454 26.2689 15.2979 26.943 15.7794Z" fill="white"/>
<path d="M57.7891 29.9727H63.4727C63.7461 32.2969 66.168 33.8203 69.293 33.8203C72.4375 33.8203 74.5859 32.3164 74.5859 30.2461C74.5859 28.4102 73.2383 27.3945 69.8398 26.6328L66.168 25.832C60.9727 24.7188 58.4141 22.082 58.4141 17.9609C58.4141 12.7656 62.9062 9.32812 69.1953 9.32812C75.7578 9.32812 79.8789 12.707 79.9766 17.8047H74.4492C74.2539 15.4219 72.1641 13.9766 69.2148 13.9766C66.3047 13.9766 64.3516 15.3633 64.3516 17.4531C64.3516 19.1914 65.7188 20.168 68.9609 20.9102L72.3789 21.6328C78.0234 22.8438 80.4844 25.2656 80.4844 29.5625C80.4844 35.0312 76.0508 38.4883 69.0586 38.4883C62.2812 38.4883 57.9648 35.2656 57.7891 29.9727ZM89.5469 25.4609L96.6562 17.0625H103.121L95.1328 26.0469L103.512 38H96.9492L90.9531 29.4844L89.4688 31.0859V38H83.7656V9.81641H89.4688V25.4609H89.5469ZM105.25 38V17.0625H110.953V38H105.25ZM108.102 14.7578C106.383 14.7578 105.055 13.4492 105.055 11.8086C105.055 10.1484 106.383 8.85938 108.102 8.85938C109.82 8.85938 111.148 10.1484 111.148 11.8086C111.148 13.4492 109.82 14.7578 108.102 14.7578ZM114.898 38V9.81641H120.602V38H114.898ZM124.586 38V9.81641H130.289V38H124.586ZM133.57 29.9727H139.254C139.527 32.2969 141.949 33.8203 145.074 33.8203C148.219 33.8203 150.367 32.3164 150.367 30.2461C150.367 28.4102 149.02 27.3945 145.621 26.6328L141.949 25.832C136.754 24.7188 134.195 22.082 134.195 17.9609C134.195 12.7656 138.688 9.32812 144.977 9.32812C151.539 9.32812 155.66 12.707 155.758 17.8047H150.23C150.035 15.4219 147.945 13.9766 144.996 13.9766C142.086 13.9766 140.133 15.3633 140.133 17.4531C140.133 19.1914 141.5 20.168 144.742 20.9102L148.16 21.6328C153.805 22.8438 156.266 25.2656 156.266 29.5625C156.266 35.0312 151.832 38.4883 144.84 38.4883C138.062 38.4883 133.746 35.2656 133.57 29.9727ZM171.637 16.7305C176.949 16.7305 180.211 20.7734 180.211 27.5312C180.211 34.2695 176.969 38.332 171.734 38.332C168.688 38.332 166.344 36.8477 165.23 34.4844H165.113V44.8359H159.41V17.0625H165.035V20.7148H165.152C166.285 18.2539 168.609 16.7305 171.637 16.7305ZM169.723 33.7422C172.574 33.7422 174.371 31.3398 174.371 27.5312C174.371 23.7422 172.574 21.3008 169.723 21.3008C166.93 21.3008 165.094 23.7812 165.094 27.5312C165.094 31.3203 166.93 33.7422 169.723 33.7422ZM183.297 38V9.81641H188.902V20.793H189.02C190.133 18.1562 192.418 16.6719 195.602 16.6719C200.25 16.6719 202.906 19.6797 202.906 24.5234V38H197.203V25.7344C197.203 23.0391 195.875 21.3984 193.277 21.3984C190.582 21.3984 189 23.293 189 26.0469V38H183.297ZM215.953 20.832C213.453 20.832 211.656 22.7266 211.461 25.3438H220.348C220.23 22.668 218.492 20.832 215.953 20.832ZM220.426 31.5938H225.66C225.035 35.6953 221.285 38.4492 216.109 38.4492C209.664 38.4492 205.797 34.3281 205.797 27.6289C205.797 20.9492 209.703 16.6133 215.895 16.6133C221.988 16.6133 225.836 20.7344 225.836 27.1016V28.8398H211.402V29.1914C211.402 32.1797 213.297 34.2305 216.207 34.2305C218.297 34.2305 219.898 33.1953 220.426 31.5938ZM228.785 38V17.0625H234.293V20.832H234.41C235.152 18.1758 236.93 16.7305 239.391 16.7305C240.055 16.7305 240.621 16.8281 241.012 16.9453V21.9648C240.543 21.7695 239.762 21.6328 238.941 21.6328C236.129 21.6328 234.488 23.3516 234.488 26.3008V38H228.785ZM252.047 20.832C249.547 20.832 247.75 22.7266 247.555 25.3438H256.441C256.324 22.668 254.586 20.832 252.047 20.832ZM256.52 31.5938H261.754C261.129 35.6953 257.379 38.4492 252.203 38.4492C245.758 38.4492 241.891 34.3281 241.891 27.6289C241.891 20.9492 245.797 16.6133 251.988 16.6133C258.082 16.6133 261.93 20.7344 261.93 27.1016V28.8398H247.496V29.1914C247.496 32.1797 249.391 34.2305 252.301 34.2305C254.391 34.2305 255.992 33.1953 256.52 31.5938Z" fill="white"/>
</svg>
