<svg width="32" height="32" viewBox="0 0 32 32" fill="none" xmlns="http://www.w3.org/2000/svg">
<path fill-rule="evenodd" clip-rule="evenodd" d="M15.9307 1.66675H16.0693C17.2673 1.66671 18.2663 1.66668 19.0593 1.7733C19.8964 1.88584 20.6521 2.1334 21.2594 2.74069C21.8667 3.34799 22.1142 4.10372 22.2268 4.94078C22.3056 5.52691 22.3261 6.22553 22.3315 7.03385C23.1962 7.0616 23.967 7.11216 24.652 7.20426C26.2153 7.41443 27.4805 7.85726 28.4783 8.85507C29.4762 9.85289 29.919 11.1182 30.1292 12.6814C30.3334 14.2003 30.3334 16.1412 30.3333 18.5915V18.742C30.3334 21.1923 30.3334 23.1332 30.1292 24.6521C29.919 26.2153 29.4762 27.4806 28.4783 28.4784C27.4805 29.4762 26.2153 29.9191 24.652 30.1292C23.1331 30.3335 21.1922 30.3334 18.7419 30.3334H13.2581C10.8078 30.3334 8.86692 30.3335 7.34797 30.1292C5.78474 29.9191 4.51947 29.4762 3.52166 28.4784C2.52384 27.4806 2.08102 26.2153 1.87084 24.6521C1.66663 23.1332 1.66664 21.1923 1.66666 18.742V18.5915C1.66664 16.1412 1.66663 14.2003 1.87084 12.6814C2.08102 11.1182 2.52384 9.85289 3.52166 8.85507C4.51947 7.85726 5.78474 7.41443 7.34797 7.20426C8.033 7.11216 8.80384 7.0616 9.66853 7.03385C9.67387 6.22553 9.69441 5.52691 9.77321 4.94078C9.88575 4.10372 10.1333 3.34799 10.7406 2.74069C11.3479 2.1334 12.1036 1.88584 12.9407 1.7733C13.7337 1.66668 14.7327 1.66671 15.9307 1.66675ZM11.6691 7.00245C12.1732 7.00007 12.7026 7.00008 13.2581 7.00008H18.7419C19.2974 7.00008 19.8268 7.00007 20.3309 7.00245C20.3253 6.24202 20.3066 5.66842 20.2446 5.20727C20.1619 4.59199 20.0189 4.32866 19.8452 4.15491C19.6714 3.98115 19.4081 3.83819 18.7928 3.75546C18.1488 3.66887 17.2853 3.66675 16 3.66675C14.7147 3.66675 13.8512 3.66887 13.2072 3.75546C12.5919 3.83819 12.3286 3.98115 12.1548 4.15491C11.9811 4.32866 11.8381 4.59199 11.7554 5.20727C11.6934 5.66842 11.6747 6.24202 11.6691 7.00245ZM7.61446 9.18643C6.27301 9.36678 5.50015 9.70501 4.93587 10.2693C4.37159 10.8336 4.03336 11.6064 3.85301 12.9479C3.66879 14.3181 3.66667 16.1243 3.66667 18.6667C3.66667 21.2092 3.66879 23.0154 3.85301 24.3856C4.03336 25.7271 4.37159 26.4999 4.93587 27.0642C5.50015 27.6285 6.27301 27.9667 7.61446 28.1471C8.98468 28.3313 10.7909 28.3334 13.3333 28.3334H18.6667C21.2091 28.3334 23.0153 28.3313 24.3855 28.1471C25.727 27.9667 26.4998 27.6285 27.0641 27.0642C27.6284 26.4999 27.9666 25.7271 28.147 24.3856C28.3312 23.0154 28.3333 21.2092 28.3333 18.6667C28.3333 16.1243 28.3312 14.3181 28.147 12.9479C27.9666 11.6064 27.6284 10.8336 27.0641 10.2693C26.4998 9.70501 25.727 9.36678 24.3855 9.18643C23.0153 9.00221 21.2091 9.00008 18.6667 9.00008H13.3333C10.7909 9.00008 8.98468 9.00221 7.61446 9.18643ZM16 12.3334C16.5523 12.3334 17 12.7811 17 13.3334V13.3471C18.4517 13.7128 19.6667 14.8574 19.6667 16.4445C19.6667 16.9968 19.219 17.4445 18.6667 17.4445C18.1144 17.4445 17.6667 16.9968 17.6667 16.4445C17.6667 15.9325 17.0989 15.2223 16 15.2223C14.9011 15.2223 14.3333 15.9325 14.3333 16.4445C14.3333 16.9566 14.9011 17.6667 16 17.6667C17.8466 17.6667 19.6667 18.9464 19.6667 20.889C19.6667 22.4761 18.4517 23.6207 17 23.9864V24.0001C17 24.5524 16.5523 25.0001 16 25.0001C15.4477 25.0001 15 24.5524 15 24.0001V23.9864C13.5483 23.6207 12.3333 22.4761 12.3333 20.889C12.3333 20.3367 12.781 19.889 13.3333 19.889C13.8856 19.889 14.3333 20.3367 14.3333 20.889C14.3333 21.401 14.9011 22.1112 16 22.1112C17.0989 22.1112 17.6667 21.401 17.6667 20.889C17.6667 20.3769 17.0989 19.6667 16 19.6667C14.1534 19.6667 12.3333 18.3871 12.3333 16.4445C12.3333 14.8574 13.5483 13.7128 15 13.3471V13.3334C15 12.7811 15.4477 12.3334 16 12.3334Z" fill="#171717"/>
</svg>
