<svg width="32" height="32" viewBox="0 0 32 32" fill="none" xmlns="http://www.w3.org/2000/svg">
<path fill-rule="evenodd" clip-rule="evenodd" d="M13.2581 1.66675H18.7419C21.1922 1.66673 23.1331 1.66671 24.652 1.87093C26.2152 2.0811 27.4805 2.52392 28.4783 3.52174C29.4761 4.51956 29.919 5.78482 30.1291 7.34805C30.3334 8.867 30.3333 10.8079 30.3333 13.2582V14.7399C30.3333 15.6233 30.3333 16.4236 30.3157 17.1455C30.3273 17.2064 30.3333 17.2692 30.3333 17.3334C30.3333 17.4189 30.3226 17.502 30.3024 17.5812C30.2803 18.1733 30.2426 18.7083 30.178 19.1891C30.0166 20.3892 29.6714 21.3997 28.8689 22.2023C28.0663 23.0048 27.0558 23.35 25.8557 23.5114C24.6997 23.6668 23.2299 23.6668 21.4065 23.6667H17V28.3334H21.3333C21.8856 28.3334 22.3333 28.7811 22.3333 29.3334C22.3333 29.8857 21.8856 30.3334 21.3333 30.3334H10.6667C10.1144 30.3334 9.66666 29.8857 9.66666 29.3334C9.66666 28.7811 10.1144 28.3334 10.6667 28.3334H15V23.6667H10.5935C8.77004 23.6668 7.30028 23.6668 6.14432 23.5114C4.94418 23.35 3.93368 23.0048 3.13112 22.2023C2.32857 21.3997 1.98338 20.3892 1.82202 19.1891C1.75739 18.7083 1.71964 18.1733 1.69759 17.5812C1.67739 17.502 1.66666 17.4189 1.66666 17.3334C1.66666 17.2692 1.67272 17.2063 1.68429 17.1455C1.66663 16.4236 1.66664 15.6233 1.66666 14.7399L1.66666 13.2582C1.66664 10.8078 1.66662 8.867 1.87084 7.34805C2.08101 5.78482 2.52383 4.51956 3.52165 3.52174C4.51947 2.52392 5.78473 2.0811 7.34796 1.87093C8.86691 1.66671 10.8078 1.66673 13.2581 1.66675ZM3.74229 18.3334C3.75898 18.5419 3.77934 18.7378 3.80419 18.9226C3.93573 19.901 4.17632 20.4191 4.54534 20.7881C4.91435 21.1571 5.43245 21.3977 6.41082 21.5292C7.41795 21.6646 8.75277 21.6667 10.6667 21.6667H21.3333C23.2472 21.6667 24.582 21.6646 25.5892 21.5292C26.5675 21.3977 27.0856 21.1571 27.4546 20.7881C27.8237 20.4191 28.0643 19.901 28.1958 18.9226C28.2206 18.7378 28.241 18.5419 28.2577 18.3334H3.74229ZM28.3284 16.3334H3.6716C3.66688 15.8316 3.66666 15.2788 3.66666 14.6667V13.3334C3.66666 10.791 3.66878 8.98477 3.853 7.61455C4.03336 6.27309 4.37158 5.50023 4.93586 4.93595C5.50014 4.37167 6.273 4.03345 7.61446 3.85309C8.98467 3.66887 10.7909 3.66675 13.3333 3.66675H18.6667C21.2091 3.66675 23.0153 3.66887 24.3855 3.85309C25.727 4.03345 26.4998 4.37167 27.0641 4.93595C27.6284 5.50023 27.9666 6.27309 28.147 7.61455C28.3312 8.98477 28.3333 10.791 28.3333 13.3334V14.6667C28.3333 15.2788 28.3331 15.8316 28.3284 16.3334Z" fill="#171717"/>
</svg>
