<svg width="32" height="32" viewBox="0 0 32 32" fill="none" xmlns="http://www.w3.org/2000/svg">
<path fill-rule="evenodd" clip-rule="evenodd" d="M16 3.66675C9.19097 3.66675 3.66669 9.2017 3.66669 16.0349C3.66669 22.3847 8.43816 27.615 14.5768 28.3217C15.1934 28.3927 15.8534 28.134 16.3811 27.6049C16.8631 27.1217 16.8631 26.3371 16.3811 25.8539C15.9652 25.4369 15.5481 24.8812 15.3199 24.2497C15.0862 23.6028 15.0284 22.7911 15.5026 22.0369C15.9332 21.3521 16.5788 20.9855 17.2562 20.8072C17.9084 20.6356 18.6312 20.6259 19.3254 20.668C19.9707 20.7071 20.6654 20.7972 21.3393 20.8845C21.3962 20.8919 21.4529 20.8992 21.5094 20.9065C22.2519 21.0024 22.977 21.0917 23.6775 21.1253C25.1098 21.194 26.2132 21.0134 26.9673 20.3969C27.6889 19.807 28.3334 18.6092 28.3334 16.0349C28.3334 9.2017 22.8091 3.66675 16 3.66675ZM1.66669 16.0349C1.66669 8.10205 8.08148 1.66675 16 1.66675C23.9186 1.66675 30.3334 8.10205 30.3334 16.0349C30.3334 18.8952 29.6176 20.8136 28.2331 21.9454C26.8811 23.0506 25.1326 23.1974 23.5817 23.123C22.7906 23.0851 21.9912 22.9853 21.2532 22.8901C21.2014 22.8834 21.15 22.8767 21.0989 22.8701C20.4061 22.7804 19.778 22.6991 19.2043 22.6643C18.5827 22.6266 18.1104 22.6505 17.7652 22.7413C17.445 22.8256 17.2907 22.9504 17.1958 23.1015C17.1441 23.1837 17.1076 23.3117 17.2009 23.5701C17.2999 23.844 17.5157 24.1594 17.7971 24.4415C19.0577 25.7054 19.0577 27.7534 17.7971 29.0173C16.9302 29.8865 15.6909 30.4632 14.348 30.3086C7.20756 29.4865 1.66669 23.4084 1.66669 16.0349ZM12.78 8.33311C12.2277 8.33311 11.78 8.78083 11.78 9.33311C11.78 9.8854 12.2277 10.3331 12.78 10.3331C13.3323 10.3331 13.78 9.8854 13.78 9.33311C13.78 8.78083 13.3323 8.33311 12.78 8.33311ZM9.78002 9.33311C9.78002 7.67626 11.1232 6.33311 12.78 6.33311C14.4369 6.33311 15.78 7.67626 15.78 9.33311C15.78 10.99 14.4369 12.3331 12.78 12.3331C11.1232 12.3331 9.78002 10.99 9.78002 9.33311ZM19.3334 8.33342C18.7811 8.33342 18.3334 8.78113 18.3334 9.33342C18.3334 9.8857 18.7811 10.3334 19.3334 10.3334C19.8856 10.3334 20.3334 9.8857 20.3334 9.33342C20.3334 8.78113 19.8856 8.33342 19.3334 8.33342ZM16.3334 9.33342C16.3334 7.67656 17.6765 6.33342 19.3334 6.33342C20.9902 6.33342 22.3334 7.67656 22.3334 9.33342C22.3334 10.9903 20.9902 12.3334 19.3334 12.3334C17.6765 12.3334 16.3334 10.9903 16.3334 9.33342ZM8.66669 14.3334C8.1144 14.3334 7.66669 14.7811 7.66669 15.3334C7.66669 15.8857 8.1144 16.3334 8.66669 16.3334C9.21897 16.3334 9.66669 15.8857 9.66669 15.3334C9.66669 14.7811 9.21897 14.3334 8.66669 14.3334ZM5.66669 15.3334C5.66669 13.6766 7.00983 12.3334 8.66669 12.3334C10.3235 12.3334 11.6667 13.6766 11.6667 15.3334C11.6667 16.9903 10.3235 18.3334 8.66669 18.3334C7.00983 18.3334 5.66669 16.9903 5.66669 15.3334ZM23.3334 14.3334C22.7811 14.3334 22.3334 14.7811 22.3334 15.3334C22.3334 15.8857 22.7811 16.3334 23.3334 16.3334C23.8856 16.3334 24.3334 15.8857 24.3334 15.3334C24.3334 14.7811 23.8856 14.3334 23.3334 14.3334ZM20.3334 15.3334C20.3334 13.6766 21.6765 12.3334 23.3334 12.3334C24.9902 12.3334 26.3334 13.6766 26.3334 15.3334C26.3334 16.9903 24.9902 18.3334 23.3334 18.3334C21.6765 18.3334 20.3334 16.9903 20.3334 15.3334Z" fill="#171717"/>
</svg>
