<svg width="32" height="32" viewBox="0 0 32 32" fill="none" xmlns="http://www.w3.org/2000/svg">
<path fill-rule="evenodd" clip-rule="evenodd" d="M22.9412 2.47484C21.5242 1.91659 20.1547 2.29449 19.1853 3.15663C18.2398 3.99757 17.6667 5.29311 17.6667 6.66662V12C17.6667 13.2886 18.7113 14.3333 20 14.3333H25.3333C26.7068 14.3333 28.0024 13.7602 28.8433 12.8146C29.7055 11.8452 30.0834 10.4758 29.5251 9.05874C28.3411 6.05314 25.9468 3.65889 22.9412 2.47484ZM19.6667 12V6.66662C19.6667 5.83099 20.0198 5.09098 20.5145 4.65109C20.9852 4.23239 21.5698 4.08417 22.2081 4.33565C24.6977 5.31641 26.6835 7.30223 27.6643 9.79181C27.9158 10.4302 27.7676 11.0147 27.3489 11.4855C26.909 11.9801 26.169 12.3333 25.3333 12.3333H20C19.8159 12.3333 19.6667 12.184 19.6667 12Z" fill="#171717"/>
<path fill-rule="evenodd" clip-rule="evenodd" d="M14.6603 3.82654C13.8463 3.29917 13.0589 3.14735 12.1943 3.29812C11.46 3.42615 10.674 3.77837 9.83753 4.15324L9.74741 4.19362C9.0516 4.50523 8.38007 4.87587 7.74054 5.30319C5.49306 6.8049 3.74137 8.93934 2.70698 11.4366C1.67258 13.9339 1.40193 16.6818 1.92926 19.3328C2.4566 21.9839 3.75822 24.4191 5.66954 26.3304C7.58086 28.2417 10.016 29.5433 12.6671 30.0707C15.3182 30.598 18.0661 30.3274 20.5633 29.293C23.0606 28.2586 25.195 26.5069 26.6967 24.2594C27.1241 23.6199 27.4947 22.9483 27.8063 22.2525L27.8467 22.1624C28.2216 21.3259 28.5738 20.5399 28.7018 19.8057C28.8526 18.9411 28.7008 18.1536 28.1734 17.3396C27.6049 16.462 26.8265 16.0332 25.8746 15.8389C25.0294 15.6664 23.9733 15.6665 22.7629 15.6666L20.6667 15.6666C19.3813 15.6666 18.5179 15.6645 17.8739 15.5779C17.2586 15.4952 16.9952 15.3522 16.8215 15.1785C16.6477 15.0047 16.5048 14.7414 16.422 14.1261C16.3355 13.482 16.3333 12.6186 16.3333 11.3333L16.3333 9.23704C16.3335 8.02662 16.3336 6.97052 16.161 6.12534C15.9667 5.17346 15.5379 4.39508 14.6603 3.82654ZM10.5648 6.01894C11.5238 5.5895 12.0796 5.34828 12.5378 5.26839C12.8919 5.20664 13.1702 5.24416 13.5729 5.50507C13.912 5.7248 14.0916 5.98709 14.2014 6.52535C14.3285 7.14798 14.3333 7.99786 14.3333 9.33327L14.3333 11.4026C14.3333 12.6006 14.3333 13.5995 14.4399 14.3926C14.5524 15.2296 14.8 15.9854 15.4073 16.5927C16.0146 17.2 16.7703 17.4475 17.6074 17.5601C18.4004 17.6667 19.3993 17.6666 20.5973 17.6666L22.6667 17.6666C24.0021 17.6666 24.852 17.6714 25.4746 17.7985C26.0128 17.9084 26.2751 18.0879 26.4949 18.4271C26.7558 18.8298 26.7933 19.108 26.7315 19.4621C26.6517 19.9203 26.4104 20.4762 25.981 21.4351C25.715 22.029 25.3986 22.6023 25.0338 23.1483C23.7519 25.0668 21.9298 26.5622 19.798 27.4452C17.6662 28.3282 15.3204 28.5593 13.0573 28.1091C10.7942 27.6589 8.71536 26.5478 7.08375 24.9162C5.45214 23.2846 4.341 21.2058 3.89083 18.9427C3.44067 16.6796 3.67171 14.3338 4.55473 12.202C5.43776 10.0702 6.9331 8.24808 8.85168 6.96613C9.39764 6.60133 9.97089 6.28493 10.5648 6.01894Z" fill="#171717"/>
</svg>
