<svg width="32" height="32" viewBox="0 0 32 32" fill="none" xmlns="http://www.w3.org/2000/svg">
<path fill-rule="evenodd" clip-rule="evenodd" d="M6.633 3H25.367C25.9596 2.99999 26.4543 2.99998 26.8605 3.02769C27.2833 3.05654 27.6827 3.11873 28.0698 3.27911C28.9683 3.65125 29.6821 4.36506 30.0542 5.26349C30.2146 5.65068 30.2768 6.05005 30.3056 6.47285C30.3334 6.879 30.3333 7.37371 30.3333 7.96632V8.03368C30.3333 8.62629 30.3334 9.12101 30.3056 9.52715C30.2768 9.94995 30.2146 10.3493 30.0542 10.7365C29.8544 11.219 29.5559 11.6483 29.1833 12C29.5559 12.3517 29.8544 12.781 30.0542 13.2635C30.2146 13.6507 30.2768 14.05 30.3056 14.4728C30.3334 14.879 30.3333 15.3737 30.3333 15.9663V16.0337C30.3333 16.6263 30.3334 17.121 30.3056 17.5272C30.2768 17.95 30.2146 18.3493 30.0542 18.7365C29.8544 19.219 29.5559 19.6483 29.1833 20C29.5559 20.3517 29.8544 20.781 30.0542 21.2635C30.2146 21.6507 30.2768 22.05 30.3056 22.4728C30.3334 22.879 30.3333 23.3737 30.3333 23.9663V24.0337C30.3333 24.6263 30.3334 25.121 30.3056 25.5272C30.2768 25.95 30.2146 26.3493 30.0542 26.7365C29.6821 27.6349 28.9683 28.3487 28.0698 28.7209C27.6827 28.8813 27.2833 28.9435 26.8605 28.9723C26.4543 29 25.9596 29 25.367 29H6.63299C6.04038 29 5.54567 29 5.13952 28.9723C4.71672 28.9435 4.31735 28.8813 3.93017 28.7209C3.03173 28.3487 2.31793 27.6349 1.94578 26.7365C1.7854 26.3493 1.72321 25.95 1.69437 25.5272C1.66665 25.121 1.66666 24.6263 1.66667 24.0337V23.9663C1.66666 23.3737 1.66665 22.879 1.69437 22.4728C1.72321 22.05 1.7854 21.6507 1.94578 21.2635C2.14565 20.781 2.44408 20.3517 2.81673 20C2.44408 19.6483 2.14565 19.219 1.94578 18.7365C1.7854 18.3493 1.72321 17.95 1.69437 17.5272C1.66665 17.121 1.66666 16.6263 1.66667 16.0337V15.9663C1.66666 15.3737 1.66665 14.879 1.69437 14.4728C1.72321 14.05 1.7854 13.6507 1.94578 13.2635C2.14565 12.781 2.44408 12.3517 2.81673 12C2.44408 11.6483 2.14565 11.219 1.94578 10.7365C1.7854 10.3493 1.72321 9.94995 1.69437 9.52715C1.66665 9.121 1.66666 8.62628 1.66667 8.03367V7.96633C1.66666 7.37372 1.66665 6.879 1.69437 6.47285C1.72321 6.05005 1.7854 5.65068 1.94578 5.26349C2.31793 4.36506 3.03173 3.65125 3.93017 3.27911C4.31735 3.11873 4.71672 3.05654 5.13952 3.02769C5.54567 2.99998 6.04039 2.99999 6.633 3ZM6.66667 11C6.03173 11 5.60561 10.9995 5.27566 10.9769C4.95469 10.955 4.7984 10.9157 4.69553 10.8731C4.28715 10.704 3.9627 10.3795 3.79354 9.97114C3.75093 9.86827 3.71163 9.71198 3.68973 9.39101C3.66721 9.06106 3.66667 8.63494 3.66667 8C3.66667 7.36506 3.66721 6.93894 3.68973 6.60899C3.71163 6.28802 3.75093 6.13173 3.79354 6.02886C3.9627 5.62048 4.28715 5.29602 4.69553 5.12687C4.7984 5.08426 4.95469 5.04495 5.27566 5.02305C5.60561 5.00054 6.03173 5 6.66667 5H25.3333C25.9683 5 26.3944 5.00054 26.7243 5.02305C27.0453 5.04495 27.2016 5.08426 27.3045 5.12687C27.7129 5.29602 28.0373 5.62048 28.2065 6.02886C28.2491 6.13173 28.2884 6.28802 28.3103 6.60899C28.3328 6.93894 28.3333 7.36506 28.3333 8C28.3333 8.63494 28.3328 9.06106 28.3103 9.39101C28.2884 9.71198 28.2491 9.86827 28.2065 9.97114C28.0373 10.3795 27.7129 10.704 27.3045 10.8731C27.2016 10.9157 27.0453 10.955 26.7243 10.9769C26.3944 10.9995 25.9683 11 25.3333 11H6.66667ZM6.66667 13C6.03173 13 5.60561 13.0005 5.27566 13.0231C4.95469 13.045 4.7984 13.0843 4.69553 13.1269C4.28715 13.296 3.9627 13.6205 3.79354 14.0289C3.75093 14.1317 3.71163 14.288 3.68973 14.609C3.66721 14.9389 3.66667 15.3651 3.66667 16C3.66667 16.6349 3.66721 17.0611 3.68973 17.391C3.71163 17.712 3.75093 17.8683 3.79354 17.9711C3.9627 18.3795 4.28715 18.704 4.69553 18.8731C4.7984 18.9157 4.95469 18.955 5.27566 18.9769C5.60561 18.9995 6.03173 19 6.66667 19H25.3333C25.9683 19 26.3944 18.9995 26.7243 18.9769C27.0453 18.955 27.2016 18.9157 27.3045 18.8731C27.7129 18.704 28.0373 18.3795 28.2065 17.9711C28.2491 17.8683 28.2884 17.712 28.3103 17.391C28.3328 17.0611 28.3333 16.6349 28.3333 16C28.3333 15.3651 28.3328 14.9389 28.3103 14.609C28.2884 14.288 28.2491 14.1317 28.2065 14.0289C28.0373 13.6205 27.7129 13.296 27.3045 13.1269C27.2016 13.0843 27.0453 13.045 26.7243 13.0231C26.3944 13.0005 25.9683 13 25.3333 13H6.66667ZM6.66667 21C6.03173 21 5.60561 21.0005 5.27566 21.0231C4.95469 21.045 4.7984 21.0843 4.69553 21.1269C4.28715 21.296 3.9627 21.6205 3.79354 22.0289C3.75093 22.1317 3.71163 22.288 3.68973 22.609C3.66721 22.9389 3.66667 23.3651 3.66667 24C3.66667 24.6349 3.66721 25.0611 3.68973 25.391C3.71163 25.712 3.75093 25.8683 3.79354 25.9711C3.9627 26.3795 4.28715 26.704 4.69553 26.8731C4.7984 26.9157 4.95469 26.955 5.27566 26.9769C5.60561 26.9995 6.03173 27 6.66667 27H25.3333C25.9683 27 26.3944 26.9995 26.7243 26.9769C27.0453 26.955 27.2016 26.9157 27.3045 26.8731C27.7129 26.704 28.0373 26.3795 28.2065 25.9711C28.2491 25.8683 28.2884 25.712 28.3103 25.391C28.3328 25.0611 28.3333 24.6349 28.3333 24C28.3333 23.3651 28.3328 22.9389 28.3103 22.609C28.2884 22.288 28.2491 22.1317 28.2065 22.0289C28.0373 21.6205 27.7129 21.296 27.3045 21.1269C27.2016 21.0843 27.0453 21.045 26.7243 21.0231C26.3944 21.0005 25.9683 21 25.3333 21H6.66667Z" fill="#171717"/>
<path d="M8.00001 16C8.00001 16.7364 7.40305 17.3333 6.66667 17.3333C5.93029 17.3333 5.33334 16.7364 5.33334 16C5.33334 15.2636 5.93029 14.6667 6.66667 14.6667C7.40305 14.6667 8.00001 15.2636 8.00001 16Z" fill="#171717"/>
<path d="M8.00001 8C8.00001 8.73638 7.40305 9.33333 6.66667 9.33333C5.93029 9.33333 5.33334 8.73638 5.33334 8C5.33334 7.26362 5.93029 6.66667 6.66667 6.66667C7.40305 6.66667 8.00001 7.26362 8.00001 8Z" fill="#171717"/>
<path d="M8.00001 24C8.00001 24.7364 7.40305 25.3333 6.66667 25.3333C5.93029 25.3333 5.33334 24.7364 5.33334 24C5.33334 23.2636 5.93029 22.6667 6.66667 22.6667C7.40305 22.6667 8.00001 23.2636 8.00001 24Z" fill="#171717"/>
</svg>
