<svg width="32" height="32" viewBox="0 0 32 32" fill="none" xmlns="http://www.w3.org/2000/svg">
<path fill-rule="evenodd" clip-rule="evenodd" d="M16 1.66675C12.5022 1.66675 9.66668 4.50228 9.66668 8.00008C9.66668 11.4979 12.5022 14.3334 16 14.3334C19.4978 14.3334 22.3333 11.4979 22.3333 8.00008C22.3333 4.50228 19.4978 1.66675 16 1.66675ZM11.6667 8.00008C11.6667 5.60685 13.6068 3.66675 16 3.66675C18.3932 3.66675 20.3333 5.60685 20.3333 8.00008C20.3333 10.3933 18.3932 12.3334 16 12.3334C13.6068 12.3334 11.6667 10.3933 11.6667 8.00008Z" fill="#171717"/>
<path fill-rule="evenodd" clip-rule="evenodd" d="M10.6667 16.3334C7.87863 16.3334 5.53193 18.4202 5.20617 21.1892L4.3402 28.5499C4.27567 29.0984 4.66801 29.5954 5.21651 29.6599C5.76501 29.7244 6.26197 29.3321 6.3265 28.7836L7.19247 21.4229C7.35924 20.0053 8.3585 18.8688 9.66668 18.4788L9.66668 24.0694C9.66664 25.2674 9.66661 26.2663 9.77323 27.0594C9.88577 27.8964 10.1333 28.6522 10.7406 29.2595C11.3479 29.8668 12.1037 30.1143 12.9407 30.2269C13.7337 30.3335 14.7327 30.3335 15.9306 30.3334H16.0693C17.2673 30.3335 18.2663 30.3335 19.0593 30.2269C19.8964 30.1143 20.6521 29.8668 21.2594 29.2595C21.8667 28.6522 22.1143 27.8964 22.2268 27.0594C22.3334 26.2664 22.3334 25.2674 22.3334 24.0695L22.3333 18.4788C23.6415 18.8688 24.6408 20.0053 24.8076 21.4229L25.6735 28.7836C25.7381 29.3321 26.235 29.7244 26.7835 29.6599C27.332 29.5954 27.7244 29.0984 27.6598 28.5499L26.7939 21.1892C26.4681 18.4202 24.1214 16.3334 21.3333 16.3334H10.6667ZM11.6667 24.0001V18.3334H20.3333V24.0001C20.3333 25.2854 20.3312 26.1488 20.2446 26.7929C20.1619 27.4082 20.0189 27.6715 19.8452 27.8453C19.6714 28.019 19.4081 28.162 18.7928 28.2447C18.1488 28.3313 17.2854 28.3334 16 28.3334C14.7147 28.3334 13.8513 28.3313 13.2072 28.2447C12.5919 28.162 12.3286 28.019 12.1548 27.8453C11.9811 27.6715 11.8381 27.4082 11.7554 26.7929C11.6688 26.1488 11.6667 25.2854 11.6667 24.0001Z" fill="#171717"/>
</svg>
